<svg width="64" height="64" viewBox="0 0 500 500" fill="none" xmlns="http://www.w3.org/2000/svg" class="md:w-32 md:h-32 mb-4 md:mb-0" style="filter: drop-shadow(rgba(255, 69, 0, 0.2) 0px 0px 5px);"><path d="M0 0 C99.66 0 199.32 0 302 0 C302 2.64 302 5.28 302 8 C309.26 8 316.52 8 324 8 C324.33 9.98 324.66 11.96 325 14 C325.85464844 14.06058594 326.70929688 14.12117188 327.58984375 14.18359375 C328.69457031 14.26738281 329.79929687 14.35117187 330.9375 14.4375 C332.59072266 14.55931641 332.59072266 14.55931641 334.27734375 14.68359375 C337 15 337 15 338 16 C338.04080783 17.99958364 338.04254356 20.00045254 338 22 C339.98 22 341.96 22 344 22 C344.23783203 22.84884766 344.23783203 22.84884766 344.48046875 23.71484375 C344.71378906 24.44832031 344.94710938 25.18179688 345.1875 25.9375 C345.40792969 26.66839844 345.62835938 27.39929688 345.85546875 28.15234375 C346.23316406 28.76207031 346.61085938 29.37179688 347 30 C348.65 30.33 350.3 30.66 352 31 C352.33 34.96 352.66 38.92 353 43 C354.98 43.33 356.96 43.66 359 44 C359 48.95 359 53.9 359 59 C361.31 59 363.62 59 366 59 C366 66.26 366 73.52 366 81 C368.31 81 370.62 81 373 81 C373.02278966 113.46846991 373.04049781 145.93693752 373.05106533 178.40541359 C373.05231611 182.23454983 373.05361042 186.06368605 373.05493164 189.89282227 C373.05532511 191.03633895 373.05532511 191.03633895 373.05572652 192.20295698 C373.06008337 204.5630492 373.067971 216.92313678 373.0771528 229.28322624 C373.08648892 241.95631985 373.09205552 254.62941103 373.09408849 267.30250794 C373.09546381 275.12881798 373.09981485 282.95511494 373.10791647 290.78142095 C373.11380409 296.77245809 373.11445907 302.76348386 373.11310768 308.75452423 C373.11338421 311.21970513 373.11539197 313.6848865 373.11920547 316.15006447 C373.12413575 319.49971481 373.12300076 322.84930786 373.12025452 326.19895935 C373.12462378 327.68287781 373.12462378 327.68287781 373.12908131 329.19677442 C373.12709026 330.08703134 373.12509921 330.97728826 373.12304783 331.89452267 C373.12342755 332.66877242 373.12380727 333.44302217 373.1241985 334.24073404 C373 336 373 336 372 337 C370.02 337 368.04 337 366 337 C366 343.93 366 350.86 366 358 C363.69 358 361.38 358 359 358 C359 363.28 359 368.56 359 374 C356.69 374 354.38 374 352 374 C352.0309375 375.9490625 352.0309375 375.9490625 352.0625 377.9375 C352.08399454 379.29165633 352.07148199 380.64756083 352 382 C351 383 351 383 347.9375 383.0625 C346.968125 383.041875 345.99875 383.02125 345 383 C345 386.3 345 389.6 345 393 C342.69 393 340.38 393 338 393 C338.0309375 394.7015625 338.0309375 394.7015625 338.0625 396.4375 C338 400 338 400 337 401 C334.81360547 401.07258946 332.62499611 401.08373783 330.4375 401.0625 C329.23996094 401.05347656 328.04242188 401.04445313 326.80859375 401.03515625 C325.88175781 401.02355469 324.95492188 401.01195312 324 401 C324.0309375 402.7015625 324.0309375 402.7015625 324.0625 404.4375 C324 408 324 408 323 409 C320.46950598 409.07313567 317.96695163 409.09247527 315.4375 409.0625 C314.37112305 409.05573242 314.37112305 409.05573242 313.28320312 409.04882812 C311.52209987 409.03700864 309.76103964 409.01907263 308 409 C308 411.97 308 414.94 308 418 C301.07 418 294.14 418 287 418 C287 420.31 287 422.62 287 425 C197.24 425 107.48 425 15 425 C15 422.69 15 420.38 15 418 C8.07 418 1.14 418 -6 418 C-6 415.03 -6 412.06 -6 409 C-7.60681641 409.01740234 -7.60681641 409.01740234 -9.24609375 409.03515625 C-10.64322743 409.04453299 -12.04036299 409.05363331 -13.4375 409.0625 C-14.14455078 409.07087891 -14.85160156 409.07925781 -15.58007812 409.08789062 C-17.38693559 409.09653588 -19.19387603 409.05220011 -21 409 C-22 408 -22 408 -22.0625 404.4375 C-22.041875 403.303125 -22.02125 402.16875 -22 401 C-22.85464844 401.01160156 -23.70929688 401.02320313 -24.58984375 401.03515625 C-26.24693359 401.04869141 -26.24693359 401.04869141 -27.9375 401.0625 C-29.03964844 401.07410156 -30.14179687 401.08570313 -31.27734375 401.09765625 C-34 401 -34 401 -35 400 C-35.04092937 397.66702567 -35.04241723 395.33294775 -35 393 C-37.64 393 -40.28 393 -43 393 C-43 389.7 -43 386.4 -43 383 C-45.31 383 -47.62 383 -50 383 C-50.495 379.04 -50.495 379.04 -51 375 C-53.31 374.67 -55.62 374.34 -58 374 C-58 368.72 -58 363.44 -58 358 C-60.31 358 -62.62 358 -65 358 C-65 351.07 -65 344.14 -65 337 C-66.65 337 -68.3 337 -70 337 C-71 336 -71 336 -71.1241985 334.24073404 C-71.12381878 333.46648429 -71.12343906 332.69223453 -71.12304783 331.89452267 C-71.12503888 331.00426575 -71.12702993 330.11400883 -71.12908131 329.19677442 C-71.12616847 328.20749545 -71.12325563 327.21821648 -71.12025452 326.19895935 C-71.12153615 324.63571894 -71.12153615 324.63571894 -71.12284368 323.04089791 C-71.1245016 319.52000539 -71.11897203 315.99915967 -71.11352539 312.47827148 C-71.11324356 309.96584067 -71.11340117 307.45340977 -71.1139679 304.940979 C-71.11419622 299.51708306 -71.11134475 294.09320241 -71.10573006 288.66930962 C-71.109761733 280.82718701 -71.109500007 272.98507022 -71.109374207 265.14294387 C-71.109155119 252.42089483 -71.108489013 239.6988522 -71.107543945 226.97680664 C-71.10626626 214.61547884 -71.105918498 202.25415278 -71.105493164 189.89282227 C-71.105466892 189.13140112 -71.105440619 188.36997997 -71.105413551 187.58548545 C-71.105283051 183.76581793 -71.105156679 179.94615039 -71.105032361 176.12648284 C-71.103994987 144.41765054 -71.102225647 112.70882626 -71 81 C-69.02 81 -67.04 81 -65 81 C-65 73.74 -65 66.48 -65 59 C-62.69 59 -60.38 59 -58 59 C-58 54.05 -58 49.1 -58 44 C-54.535 43.505 -54.535 43.505 -51 43 C-50.67 39.04 -50.34 35.08 -50 31 C-48.02 30.34 -46.04 29.68 -44 29 C-43.67 26.69 -43.34 24.38 -43 22 C-39.535 21.505 -39.535 21.505 -36 21 C-35.67 19.02 -35.34 17.04 -35 15 C-28.565 14.505 -28.565 14.505 -22 14 C-22 12.02 -22 10.04 -22 8 C-15.07 8 -8.14 8 -1 8 C-0.67 5.36 -0.34 2.72 0 0 Z" fill="#1a0a05" transform="translate(99,38)"></path><path d="M273 34 C273 36.31 273 38.62 273 41 C284.55 41 296.1 41 308 41 C308 38.69 308 36.38 308 34 C296.45 34 284.9 34 273 34 Z M194 36 C193.83333333 38.5 193.83333333 38.5 194 41 C195.55606751 42.55606751 197.05957371 42.12970769 199.21875 42.1328125 C200.06824219 42.13410156 200.91773438 42.13539062 201.79296875 42.13671875 C202.68628906 42.13285156 203.57960938 42.12898438 204.5 42.125 C205.83998047 42.13080078 205.83998047 42.13080078 207.20703125 42.13671875 C208.48126953 42.13478516 208.48126953 42.13478516 209.78125 42.1328125 C210.56564453 42.13168457 211.35003906 42.13055664 212.15820312 42.12939453 C214.01752988 42.20107442 214.01752988 42.20107442 215 41 C215.04080783 39.00041636 215.04254356 36.99954746 215 35 C211.68751813 34.97111854 208.37506833 34.95324201 205.0625 34.9375 C203.64420898 34.92493164 203.64420898 34.92493164 202.19726562 34.91210938 C201.29814453 34.90888672 200.39902344 34.90566406 199.47265625 34.90234375 C198.64000244 34.89710693 197.80734863 34.89187012 196.94946289 34.88647461 C194.99483202 34.78356708 194.99483202 34.78356708 194 36 Z M217 44 C217 45.65 217 47.3 217 49 C221.29 49 225.58 49 230 49 C230 47.02 230 45.04 230 43 C228.02090602 42.97313447 226.04171029 42.95366625 224.0625 42.9375 C222.40927734 42.92009766 222.40927734 42.92009766 220.72265625 42.90234375 C218.08552366 42.68737429 218.08552366 42.68737429 217 44 Z M265 43 C265 44.98 265 46.96 265 49 C267.31 49 269.62 49 272 49 C272 47.02 272 45.04 272 43 C269.69 43 267.38 43 265 43 Z M310 43 C310 44.98 310 46.96 310 49 C312.31 49 314.62 49 317 49 C317 47.02 317 45.04 317 43 C314.69 43 312.38 43 310 43 Z M187 44 C187 51.26 187 58.52 187 66 C188.98 66 190.96 66 193 66 C193 58.74 193 51.48 193 44 C191.02 44 189.04 44 187 44 Z M232 50 C232 51.98 232 53.96 232 56 C237.28 56 242.56 56 248 56 C248 54.02 248 52.04 248 50 C242.72 50 237.44 50 232 50 Z M256 50 C256 57.26 256 64.52 256 72 C258.31 72 260.62 72 263 72 C263 64.74 263 57.48 263 50 C260.69 50 258.38 50 256 50 Z M274 50 C274 55.28 274 60.56 274 66 C275.98 66 277.96 66 280 66 C280 63.36 280 60.72 280 58 C282.97 58 285.94 58 289 58 C289 55.36 289 52.72 289 50 C284.05 50 279.1 50 274 50 Z M318 50 C318 61.88 318 73.76 318 86 C320.31 86 322.62 86 325 86 C325 74.12 325 62.24 325 50 C322.69 50 320.38 50 318 50 Z M55 54 C55 55.65 55 57.3 55 59 C49.72 59 44.44 59 39 59 C39 61.64 39 64.28 39 67 C34.05 67 29.1 67 24 67 C23.67 68.65 23.34 70.3 23 72 C19.04 72.495 19.04 72.495 15 73 C14.67 75.31 14.34 77.62 14 80 C12.02 80 10.04 80 8 80 C7.67 82.31 7.34 84.62 7 87 C3.535 87.495 3.535 87.495 0 88 C0 93.28 0 98.56 0 104 C-2.31 104 -4.62 104 -7 104 C-7 110.6 -7 117.2 -7 124 C-9.64 124 -12.28 124 -15 124 C-15 137.53 -15 151.06 -15 165 C-13.02 165 -11.04 165 -9 165 C-9 163.35 -9 161.7 -9 160 C-4.38 160 0.24 160 5 160 C5 156.7 5 153.4 5 150 C7.97 150 10.94 150 14 150 C14 138.12 14 126.24 14 114 C16.64 114 19.28 114 22 114 C22 110.37 22 106.74 22 103 C24.31 103 26.62 103 29 103 C29.33 100.69 29.66 98.38 30 96 C31.134375 95.855625 32.26875 95.71125 33.4375 95.5625 C36.80777201 95.38828522 36.80777201 95.38828522 38 94 C38.04092937 91.66702567 38.04241723 89.33294775 38 87 C41.96 87 45.92 87 50 87 C50 84.36 50 81.72 50 79 C89.27 79 128.54 79 169 79 C169 74.71 169 70.42 169 66 C170.134375 66.020625 171.26875 66.04125 172.4375 66.0625 C175.81575674 66.41577477 175.81575674 66.41577477 177 65 C177 61.37 177 57.74 177 54 C136.74 54 96.48 54 55 54 Z M206 66 C206 70.29 206 74.58 206 79 C214.91 79 223.82 79 233 79 C233 77.02 233 75.04 233 73 C226.73 72.67 220.46 72.34 214 72 C213.67 70.02 213.34 68.04 213 66 C210.69 66 208.38 66 206 66 Z M179 67 C179 73.6 179 80.2 179 87 C180.98 87 182.96 87 185 87 C185 80.4 185 73.8 185 67 C183.02 67 181.04 67 179 67 Z M248 73 C248 77.95 248 82.9 248 88 C250.31 88 252.62 88 255 88 C255 83.05 255 78.1 255 73 C252.69 73 250.38 73 248 73 Z M198 80 C198 87.59 198 95.18 198 103 C200.31 103 202.62 103 205 103 C205 95.41 205 87.82 205 80 C202.69 80 200.38 80 198 80 Z M171 85 C170.97316013 87.97922593 170.95323963 90.95821295 170.9375 93.9375 C170.92912109 94.78763672 170.92074219 95.63777344 170.91210938 96.51367188 C170.90888672 97.32255859 170.90566406 98.13144531 170.90234375 98.96484375 C170.89710693 99.7137085 170.89187012 100.46257324 170.88647461 101.23413086 C170.80658248 103.02667739 170.80658248 103.02667739 172 104 C173.66617115 104.04063832 175.33388095 104.042721 177 104 C177.1938211 101.02111874 177.38035102 98.04209754 177.5625 95.0625 C177.61857422 94.21236328 177.67464844 93.36222656 177.73242188 92.48632812 C177.78076172 91.67744141 177.82910156 90.86855469 177.87890625 90.03515625 C177.9260376 89.2862915 177.97316895 88.53742676 178.02172852 87.76586914 C178.2052254 85.97244101 178.2052254 85.97244101 177 85 C175.00041636 84.95919217 172.99954746 84.95745644 171 85 Z M311 88 C311 90.97 311 93.94 311 97 C312.98 97 314.96 97 317 97 C317 94.03 317 91.06 317 88 C315.02 88 313.04 88 311 88 Z M256 91 C256 92.98 256 94.96 256 97 C258.31 97 260.62 97 263 97 C263 95.02 263 93.04 263 91 C260.69 91 258.38 91 256 91 Z M266 99 C266 100.98 266 102.96 266 105 C280.19 105 294.38 105 309 105 C309 103.02 309 101.04 309 99 C294.81 99 280.62 99 266 99 Z M163 104 C162.67 109.94 162.34 115.88 162 122 C146.16 122.495 146.16 122.495 130 123 C130 125.31 130 127.62 130 130 C150.03123333 130.13325455 169.98418626 129.84665834 190 129 C190 127.02 190 125.04 190 123 C183.07 123 176.14 123 169 123 C169 116.73 169 110.46 169 104 C167.02 104 165.04 104 163 104 Z M228 104 C227.67 106.31 227.34 108.62 227 111 C225.35 111.33 223.7 111.66 222 112 C222 117.28 222 122.56 222 128 C225.63 128 229.26 128 233 128 C233 129.98 233 131.96 233 134 C238.28 134 243.56 134 249 134 C249 132.02 249 130.04 249 128 C251.31 128 253.62 128 256 128 C256 122.39 256 116.78 256 111 C253.69 111 251.38 111 249 111 C249 108.69 249 106.38 249 104 C242.07 104 235.14 104 228 104 Z M191 105 C191 109.95 191 114.9 191 120 C193.31 120 195.62 120 198 120 C198 115.05 198 110.1 198 105 C195.69 105 193.38 105 191 105 Z M286 114 C286 123.24 286 132.48 286 142 C290.95 142 295.9 142 301 142 C301 144.64 301 147.28 301 150 C303.64 150 306.28 150 309 150 C309 152.31 309 154.62 309 157 C311.31 157 313.62 157 316 157 C316 152.05 316 147.1 316 142 C313.69 142 311.38 142 309 142 C309 132.76 309 123.52 309 114 C301.41 114 293.82 114 286 114 Z M105 129 C105 131.31 105 133.62 105 136 C108.64581687 136.02887512 112.29160463 136.04675585 115.9375 136.0625 C116.97841797 136.07087891 118.01933594 136.07925781 119.09179688 136.08789062 C120.08115234 136.09111328 121.07050781 136.09433594 122.08984375 136.09765625 C123.00628662 136.10289307 123.92272949 136.10812988 124.86694336 136.11352539 C126.98363023 136.23921211 126.98363023 136.23921211 128 135 C128.04063832 133.33382885 128.042721 131.66611905 128 130 C125.54724859 128.7736243 123.9494219 128.88584686 121.2109375 128.90234375 C119.79941406 128.90717773 119.79941406 128.90717773 118.359375 128.91210938 C117.37453125 128.92048828 116.3896875 128.92886719 115.375 128.9375 C113.88613281 128.94426758 113.88613281 128.94426758 112.3671875 128.95117188 C109.9113984 128.96297855 107.45572896 128.979446 105 129 Z M192 130 C190.66666667 133 190.66666667 133 192 136 C201.24 136 210.48 136 220 136 C220 134.02 220 132.04 220 130 C210.76 130 201.52 130 192 130 Z M81 136 C81 138.31 81 140.62 81 143 C88.26 143 95.52 143 103 143 C103 140.69 103 138.38 103 136 C95.74 136 88.48 136 81 136 Z M222 137 C221.61781233 138.65614657 221.28604898 140.32457024 221 142 C222.00836062 143.23267348 222.00836062 143.23267348 224.06640625 143.09765625 C224.89011719 143.08605469 225.71382813 143.07445312 226.5625 143.0625 C227.80193359 143.04896484 227.80193359 143.04896484 229.06640625 143.03515625 C230.02353516 143.01775391 230.02353516 143.01775391 231 143 C231 141.02 231 139.04 231 137 C228.03 137 225.06 137 222 137 Z M25 142 C24.61936779 144.3260857 24.28730055 146.66055264 24 149 C25.04871253 150.27305556 25.04871253 150.27305556 27.40844727 150.11352539 C28.45057373 150.10828857 29.4927002 150.10305176 30.56640625 150.09765625 C31.69111328 150.09443359 32.81582031 150.09121094 33.97460938 150.08789062 C35.75061523 150.07532227 35.75061523 150.07532227 37.5625 150.0625 C38.75037109 150.05798828 39.93824219 150.05347656 41.16210938 150.04882812 C44.10812226 150.03699675 47.05403681 150.02051287 50 150 C50.04241723 147.66705225 50.04092937 145.33297433 50 143 C48.96207228 141.73818905 48.96207228 141.73818905 46.68334961 141.88647461 C45.18300171 141.89432983 45.18300171 141.89432983 43.65234375 141.90234375 C42.57275391 141.90556641 41.49316406 141.90878906 40.38085938 141.91210938 C38.67639648 141.92467773 38.67639648 141.92467773 36.9375 141.9375 C35.79732422 141.94201172 34.65714844 141.94652344 33.48242188 141.95117188 C30.65489649 141.96300253 27.8274736 141.9794859 25 142 Z M256 142 C256 144.64 256 147.28 256 150 C265.24 150 274.48 150 284 150 C284 147.36 284 144.72 284 142 C274.76 142 265.52 142 256 142 Z M69 143 C69 145.31 69 147.62 69 150 C72.63 150 76.26 150 80 150 C80 148.02 80 146.04 80 144 C77.24921116 143.08307039 75.64051087 142.89113917 72.8125 142.9375 C71.554375 142.958125 70.29625 142.97875 69 143 Z M130 144 C130.33 145.98 130.66 147.96 131 150 C134.96 150 138.92 150 143 150 C143 148.02 143 146.04 143 144 C138.71 144 134.42 144 130 144 Z M234 144 C234 145.98 234 147.96 234 150 C236.31 150.33 238.62 150.66 241 151 C241 148.69 241 146.38 241 144 C238.69 144 236.38 144 234 144 Z M86 150 C85.67 153.63 85.34 157.26 85 161 C79.06 161.495 79.06 161.495 73 162 C73 165.63 73 169.26 73 173 C82.57 173 92.14 173 102 173 C102 171.02 102 169.04 102 167 C104.01822917 167.03255208 106.03645833 167.06510417 108.0546875 167.09765625 C110.08185404 167.12649242 110.08185404 167.12649242 112 166 C112 163.03 112 160.06 112 157 C114.64 157 117.28 157 120 157 C120 154.36 120 151.72 120 149 C108.64907025 148.78447602 97.3330558 149.43536377 86 150 Z M16 151 C16 154.63 16 158.26 16 162 C12.7 162 9.4 162 6 162 C6 165.63 6 169.26 6 173 C4.02 173 2.04 173 0 173 C-0.04241723 175.33294775 -0.04092937 177.66702567 0 180 C1.0595877 181.28322547 1.0595877 181.28322547 3.5 181.125 C5.9404123 181.28322547 5.9404123 181.28322547 7 180 C7.23075082 178.65252916 7.41153063 177.29622435 7.5625 175.9375 C7.706875 174.638125 7.85125 173.33875 8 172 C11.465 171.505 11.465 171.505 15 171 C15 169.35 15 167.7 15 166 C17.64 166 20.28 166 23 166 C23 161.05 23 156.1 23 151 C20.69 151 18.38 151 16 151 Z M52 151 C52 153.64 52 156.28 52 159 C56.95 159 61.9 159 67 159 C67 156.36 67 153.72 67 151 C62.05 151 57.1 151 52 151 Z M243 151 C243 152.98 243 154.96 243 157 C246.63 157 250.26 157 254 157 C254 155.02 254 153.04 254 151 C250.37 151 246.74 151 243 151 Z M286 151 C286 153.64 286 156.28 286 159 C290.62 159 295.24 159 300 159 C300 156.36 300 153.72 300 151 C295.38 151 290.76 151 286 151 Z M256 159 C256 160.98 256 162.96 256 165 C257.98 165 259.96 165 262 165 C262 163.02 262 161.04 262 159 C260.02 159 258.04 159 256 159 Z M301 160 C301 162.31 301 164.62 301 167 C303.64 167 306.28 167 309 167 C309 164.69 309 162.38 309 160 C306.36 160 303.72 160 301 160 Z M43 161 C43 164.3 43 167.6 43 171 C45.31 171 47.62 171 50 171 C50 167.7 50 164.4 50 161 C47.69 161 45.38 161 43 161 Z M-23 166 C-23 181.51 -23 197.02 -23 213 C-21.35 213.33 -19.7 213.66 -18 214 C-17.16712356 211.0950524 -16.87780212 208.52486082 -16.88647461 205.50683594 C-16.88655014 204.62622498 -16.88662567 203.74561401 -16.88670349 202.83831787 C-16.89186478 201.89651672 -16.89702606 200.95471558 -16.90234375 199.984375 C-16.90446617 198.52792572 -16.90446617 198.52792572 -16.90663147 197.04205322 C-16.91222337 193.94467065 -16.92477441 190.84736068 -16.9375 187.75 C-16.94251605 185.64843854 -16.94707877 183.54687596 -16.95117188 181.4453125 C-16.96219015 176.29684708 -16.97944926 171.14843584 -17 166 C-18.98 166 -20.96 166 -23 166 Z M316 166 C316 170.62 316 175.24 316 180 C318.31 180 320.62 180 323 180 C323 175.38 323 170.76 323 166 C320.69 166 318.38 166 316 166 Z M34 173 C34 175.64 34 178.28 34 181 C36.31 181 38.62 181 41 181 C41 178.36 41 175.72 41 173 C38.69 173 36.38 173 34 173 Z M324 182 C324 191.9 324 201.8 324 212 C325.98 212 327.96 212 330 212 C331.31775285 210.90812017 331.31775285 210.90812017 331.11352539 208.22436523 C331.10828857 207.01466064 331.10305176 205.80495605 331.09765625 204.55859375 C331.09443359 203.25341797 331.09121094 201.94824219 331.08789062 200.60351562 C331.07953401 199.2148431 331.07106905 197.82617123 331.0625 196.4375 C331.05748666 195.04492344 331.05292347 193.65234519 331.04882812 192.25976562 C331.03699434 188.8398013 331.0205088 185.41992156 331 182 C328.69 182 326.38 182 324 182 Z M26 183 C26 187.29 26 191.58 26 196 C28.31 196 30.62 196 33 196 C33 191.71 33 187.42 33 183 C30.69 183 28.38 183 26 183 Z M221 186 C221 188.31 221 190.62 221 193 C227.27 193 233.54 193 240 193 C240 190.69 240 188.38 240 186 C237.02111874 185.8061789 234.04209754 185.61964898 231.0625 185.4375 C229.78729492 185.35338867 229.78729492 185.35338867 228.48632812 185.26757812 C227.67744141 185.21923828 226.86855469 185.17089844 226.03515625 185.12109375 C224.91185913 185.05039673 224.91185913 185.05039673 223.76586914 184.97827148 C221.97244101 184.7947746 221.97244101 184.7947746 221 186 Z M81 186 C81 188.31 81 190.62 81 193 C88.26 193 95.52 193 103 193 C103 190.69 103 188.38 103 186 C95.74 186 88.48 186 81 186 Z M288 193 C288 195.97 288 198.94 288 202 C289.98 202 291.96 202 294 202 C294 199.03 294 196.06 294 193 C292.02 193 290.04 193 288 193 Z M106 194 C104.64381501 195.12534105 104.64381501 195.12534105 104.9375 198.0625 C104.958125 199.031875 104.97875 200.00125 105 201 C103.700625 200.979375 102.40125 200.95875 101.0625 200.9375 C99.70834367 200.91600546 98.35243917 200.92851801 97 201 C95.63467451 202.13701597 95.63467451 202.13701597 95.90234375 205.16015625 C95.91394531 206.44792969 95.92554688 207.73570312 95.9375 209.0625 C95.94652344 210.35285156 95.95554688 211.64320313 95.96484375 212.97265625 C95.97644531 213.97167969 95.98804688 214.97070312 96 216 C98.64 216 101.28 216 104 216 C104 211.38 104 206.76 104 202 C107.3 202 110.6 202 114 202 C114 213.22 114 224.44 114 236 C116.31 236 118.62 236 121 236 C121 224.45 121 212.9 121 201 C118.36 200.67 115.72 200.34 113 200 C112.67 198.35 112.34 196.7 112 195 C110.0085944 194.61866701 108.00720923 194.28674418 106 194 Z M206 194 C206 196.31 206 198.62 206 201 C203.36 201 200.72 201 198 201 C198 212.55 198 224.1 198 236 C200.31 236 202.62 236 205 236 C205 224.78 205 213.56 205 202 C209.29 202 213.58 202 218 202 C218 199.36 218 196.72 218 194 C214.04 194 210.08 194 206 194 Z M242 194 C242 196.31 242 198.62 242 201 C238.7 201 235.4 201 232 201 C232 205.95 232 210.9 232 216 C234.97 216 237.94 216 241 216 C241 211.38 241 206.76 241 202 C243.97 202 246.94 202 250 202 C249.99476318 202.99443115 249.98952637 203.9888623 249.98413086 205.01342773 C249.96607959 208.69033921 249.95456754 212.36724675 249.94506836 216.04418945 C249.94002843 217.63794614 249.9331965 219.23169819 249.92456055 220.82543945 C249.92456055 220.82543945 249.92456055 220.82543945 249.92456055 220.82543945 C249.91248001 223.11150253 249.90676845 225.39750467 249.90234375 227.68359375 C249.89718246 228.40026718 249.89202118 229.11694061 249.88670349 229.85533142 C249.88650737 231.57063672 249.93807993 233.28581266 250 235 C250.495 235.495 250.495 235.495 251 236 C252.98 236 254.96 236 257 236 C257 224.45 257 212.9 257 201 C254.36 201 251.72 201 249 201 C249 198.69 249 196.38 249 194 C246.69 194 244.38 194 242 194 Z M72 195 C72 196.98 72 198.96 72 201 C74.31 201 76.62 201 79 201 C79 199.02 79 197.04 79 195 C76.69 195 74.38 195 72 195 Z M18 198 C18 201.96 18 205.92 18 210 C19.98 210 21.96 210 24 210 C24 206.04 24 202.08 24 198 C22.02 198 20.04 198 18 198 Z M64 202 C64 213.22 64 224.44 64 236 C66.31 236 68.62 236 71 236 C71 224.78 71 213.56 71 202 C68.69 202 66.38 202 64 202 Z M296 205 C296 208.63 296 212.26 296 216 C297.98 216 299.96 216 302 216 C302 212.37 302 208.74 302 205 C300.02 205 298.04 205 296 205 Z M10 212 C8.80909045 212.97189395 8.80909045 212.97189395 8.87974548 214.75270081 C8.88196609 215.51437057 8.88418671 216.27604034 8.88647461 217.06079102 C8.88655014 217.92160782 8.88662567 218.78242462 8.88670349 219.66932678 C8.89186478 220.60473801 8.89702606 221.54014923 8.90234375 222.50390625 C8.9037587 223.45692123 8.90517365 224.40993622 8.90663147 225.39183044 C8.91224848 228.44875165 8.92480384 231.50560077 8.9375 234.5625 C8.94251281 236.62955624 8.94707609 238.69661362 8.95117188 240.76367188 C8.96222344 245.84247588 8.97949945 250.9212257 9 256 C11.31 256 13.62 256 16 256 C16 241.48 16 226.96 16 212 C14.02 212 12.04 212 10 212 Z M316 214 C316 217.96 316 221.92 316 226 C318.31 226 320.62 226 323 226 C323 222.04 323 218.08 323 214 C320.69 214 318.38 214 316 214 Z M-16 215 C-16 217.31 -16 219.62 -16 222 C-13.69 222 -11.38 222 -9 222 C-9.33 219.69 -9.66 217.38 -10 215 C-11.98 215 -13.96 215 -16 215 Z M-7 224 C-7 226.31 -7 228.62 -7 231 C-5.02 231 -3.04 231 -1 231 C-1 228.69 -1 226.38 -1 224 C-2.98 224 -4.96 224 -7 224 Z M302 226 C301.38678934 238.0065343 300.815307 249.97443352 301 262 C303.31 262 305.62 262 308 262 C308 250.12 308 238.24 308 226 C306.02 226 304.04 226 302 226 Z M81 231 C81 232.65 81 234.3 81 236 C82.65 236 84.3 236 86 236 C86 234.35 86 232.7 86 231 C84.35 231 82.7 231 81 231 Z M215 231 C215 232.65 215 234.3 215 236 C216.98 236 218.96 236 221 236 C221 234.35 221 232.7 221 231 C219.02 231 217.04 231 215 231 Z M-15 232 C-15 252.46 -15 272.92 -15 294 C-12.36 294 -9.72 294 -7 294 C-7 299.94 -7 305.88 -7 312 C-5.02 312.33 -3.04 312.66 -1 313 C-0.93941406 313.99902344 -0.87882812 314.99804688 -0.81640625 316.02734375 C-0.73261719 317.31769531 -0.64882812 318.60804688 -0.5625 319.9375 C-0.48128906 321.22527344 -0.40007812 322.51304687 -0.31640625 323.83984375 C-0.35080812 326.86023957 -0.35080812 326.86023957 1 328 C3.33297433 328.04092937 5.66705225 328.04241723 8 328 C8 330.97 8 333.94 8 337 C10.64 337.33 13.28 337.66 16 338 C16 339.98 16 341.96 16 344 C18.64 344.33 21.28 344.66 24 345 C24 346.98 24 348.96 24 351 C27.96 351.33 31.92 351.66 36 352 C36.33 353.65 36.66 355.3 37 357 C42.61 357.33 48.22 357.66 54 358 C54.495 361.465 54.495 361.465 55 365 C80.14680215 365.02332597 105.29360269 365.04097769 130.44041348 365.05181217 C142.11563414 365.05697577 153.79084809 365.06401969 165.46606445 365.07543945 C175.63822673 365.08538434 185.81038415 365.09185296 195.98255116 365.09408849 C201.3721925 365.09539594 206.76181994 365.09848388 212.15145683 365.10573006 C217.21811434 365.11248719 222.28475214 365.11461759 227.35141373 365.11310768 C229.21672358 365.11338415 231.08203404 365.11539108 232.94734001 365.11920547 C235.48249108 365.12413794 238.01756651 365.12299996 240.55271912 365.12025452 C241.3007593 365.12316736 242.04879948 365.1260802 242.81950754 365.12908131 C246.19579158 365.41888301 246.19579158 365.41888301 249 364 C249 361.69 249 359.38 249 357 C256.26 357 263.52 357 271 357 C271.33 355.35 271.66 353.7 272 352 C276.95 351.505 276.95 351.505 282 351 C282 349.02 282 347.04 282 345 C284.64 345 287.28 345 290 345 C290 342.69 290 340.38 290 338 C291.299375 338.020625 292.59875 338.04125 293.9375 338.0625 C295.29165633 338.08399454 296.64756083 338.07148199 298 338 C299.20561184 337.01732141 299.20561184 337.01732141 299.09765625 335.15234375 C299.08605469 334.42144531 299.07445312 333.69054687 299.0625 332.9375 C299.0315625 330.9884375 299.0315625 330.9884375 299 329 C301.64 329 304.28 329 307 329 C307 325.7 307 322.4 307 319 C309.64 319 312.28 319 315 319 C315 310.75 315 302.5 315 294 C317.31 294 319.62 294 322 294 C322 275.85 322 257.7 322 239 C320.35 239 318.7 239 317 239 C317 246.59 317 254.18 317 262 C313.04 262.495 313.04 262.495 309 263 C307.77482692 268.66642551 307.90771133 274.23708518 308 280 C305.69 280 303.38 280 301 280 C300.67 284.62 300.34 289.24 300 294 C297.36 294.33 294.72 294.66 292 295 C292 299.95 292 304.9 292 310 C289.36 310 286.72 310 284 310 C284 312.97 284 315.94 284 319 C282.535625 318.979375 281.07125 318.95875 279.5625 318.9375 C278.04167482 318.91607993 276.51928038 318.92820036 275 319 C273.79438816 319.98267859 273.79438816 319.98267859 273.90234375 321.84765625 C273.91394531 322.57855469 273.92554688 323.30945313 273.9375 324.0625 C273.9684375 326.0115625 273.9684375 326.0115625 274 328 C271.36 328 268.72 328 266 328 C266 330.97 266 333.94 266 337 C260.06 337 254.12 337 248 337 C248 338.98 248 340.96 248 343 C243.71 343 239.42 343 235 343 C235 339.37 235 335.74 235 332 C232.69 332 230.38 332 228 332 C228 335.63 228 339.26 228 343 C179.49 343 130.98 343 81 343 C81 338.71 81 334.42 81 330 C79.02 330.33 77.04 330.66 75 331 C75 334.96 75 338.92 75 343 C71.37 343 67.74 343 64 343 C64 341.02 64 339.04 64 337 C56.41 337 48.82 337 41 337 C41 334.36 41 331.72 41 329 C39.99163938 327.76732652 39.99163938 327.76732652 37.93359375 327.90234375 C35.62239583 327.93489583 33.31119792 327.96744792 31 328 C31 324.7 31 321.4 31 318 C28.03 318 25.06 318 22 318 C22 314.7 22 311.4 22 308 C19.36 308 16.72 308 14 308 C14 301.73 14 295.46 14 289 C10.535 288.505 10.535 288.505 7 288 C6.505 272.655 6.505 272.655 6 257 C3.69 257 1.38 257 -1 257 C-1 251.06 -1 245.12 -1 239 C-3.64 239 -6.28 239 -9 239 C-9 236.69 -9 234.38 -9 232 C-10.98 232 -12.96 232 -15 232 Z M72 237 C72 238.98 72 240.96 72 243 C74.31 243 76.62 243 79 243 C79 241.02 79 239.04 79 237 C76.69 237 74.38 237 72 237 Z M105 237 C105 238.98 105 240.96 105 243 C107.31 243 109.62 243 112 243 C112 241.02 112 239.04 112 237 C109.69 237 107.38 237 105 237 Z M206 237 C206 238.98 206 240.96 206 243 C208.64 243 211.28 243 214 243 C214 241.02 214 239.04 214 237 C211.36 237 208.72 237 206 237 Z M242 237 C242 238.98 242 240.96 242 243 C244.31 243 246.62 243 249 243 C249 241.02 249 239.04 249 237 C246.69 237 244.38 237 242 237 Z M81 245 C81 246.98 81 248.96 81 251 C88.26 251 95.52 251 103 251 C103 249.02 103 247.04 103 245 C95.74 245 88.48 245 81 245 Z M217 245 C217 246.98 217 248.96 217 251 C224.59 251 232.18 251 240 251 C240 249.02 240 247.04 240 245 C232.41 245 224.82 245 217 245 Z M17 257 C16.97111854 260.31248187 16.95324201 263.62493167 16.9375 266.9375 C16.92912109 267.88302734 16.92074219 268.82855469 16.91210938 269.80273438 C16.90888672 270.70185547 16.90566406 271.60097656 16.90234375 272.52734375 C16.89710693 273.35999756 16.89187012 274.19265137 16.88647461 275.05053711 C16.78356708 277.00516798 16.78356708 277.00516798 18 278 C20.5 278.16666667 20.5 278.16666667 23 278 C24.55606751 276.44393249 24.12970769 274.94042629 24.1328125 272.78125 C24.13410156 271.93175781 24.13539062 271.08226562 24.13671875 270.20703125 C24.13285156 269.31371094 24.12898438 268.42039062 24.125 267.5 C24.12886719 266.60667969 24.13273437 265.71335937 24.13671875 264.79296875 C24.13478516 263.51873047 24.13478516 263.51873047 24.1328125 262.21875 C24.13112061 261.0421582 24.13112061 261.0421582 24.12939453 259.84179688 C24.20107442 257.98247012 24.20107442 257.98247012 23 257 C21.00041636 256.95919217 18.99954746 256.95745644 17 257 Z M292 261 C292 266.61 292 272.22 292 278 C294.64 278 297.28 278 300 278 C300.02691685 275.54159395 300.04679802 273.08348118 300.0625 270.625 C300.07087891 269.92632812 300.07925781 269.22765625 300.08789062 268.5078125 C300.1835442 264.62704624 300.1835442 264.62704624 299 261 C296.69 261 294.38 261 292 261 Z M284 278 C284 281.3 284 284.6 284 288 C286.31 288 288.62 288 291 288 C291.02689216 286.52093108 291.04634621 285.04172517 291.0625 283.5625 C291.07990234 282.32693359 291.07990234 282.32693359 291.09765625 281.06640625 C291.23267348 279.00836062 291.23267348 279.00836062 290 278 C288.00041636 277.95919217 285.99954746 277.95745644 284 278 Z M25 279 C25 281.97 25 284.94 25 288 C27.64 288 30.28 288 33 288 C33 285.03 33 282.06 33 279 C30.36 279 27.72 279 25 279 Z M34 288 C34 290.64 34 293.28 34 296 C36.31 296 38.62 296 41 296 C41 293.36 41 290.72 41 288 C38.69 288 36.38 288 34 288 Z M275 289 C275 291.64 275 294.28 275 297 C277.31 297 279.62 297 282 297 C282 294.36 282 291.72 282 289 C279.69 289 277.38 289 275 289 Z M43 297 C42.95907063 299.33297433 42.95758277 301.66705225 43 304 C45.31 304 47.62 304 50 304 C50 301.36 50 298.72 50 296 C46.19378955 295.56152641 46.19378955 295.56152641 43 297 Z M266 298 C266 299.98 266 301.96 266 304 C268.31 304 270.62 304 273 304 C273 302.02 273 300.04 273 298 C270.69 298 268.38 298 266 298 Z M52 306 C52 308.31 52 310.62 52 313 C55.3 313 58.6 313 62 313 C62 310.69 62 308.38 62 306 C58.7 306 55.4 306 52 306 Z M248 306 C248 308.31 248 310.62 248 313 C250.47923801 313.02685095 252.9581884 313.04676547 255.4375 313.0625 C256.14455078 313.07087891 256.85160156 313.07925781 257.58007812 313.08789062 C259.38693559 313.09653588 261.19387603 313.05220011 263 313 C263.33 312.67 263.66 312.34 264 312 C264 310.02 264 308.04 264 306 C258.72 306 253.44 306 248 306 Z M64 313 C64 315.31 64 317.62 64 320 C66.94102229 320.84604751 69.56766268 321.13522521 72.625 321.125 C73.40101563 321.12757813 74.17703125 321.13015625 74.9765625 321.1328125 C77.06959248 321.12673369 77.06959248 321.12673369 79 320 C79 317.69 79 315.38 79 313 C74.05 313 69.1 313 64 313 Z M234 313 C234 315.64 234 318.28 234 321 C235.97909398 321.02686553 237.95828971 321.04633375 239.9375 321.0625 C241.59072266 321.07990234 241.59072266 321.07990234 243.27734375 321.09765625 C245.91447634 321.31262571 245.91447634 321.31262571 247 320 C247.04092937 317.66702567 247.04241723 315.33294775 247 313 C242.71 313 238.42 313 234 313 Z M215 321 C215 323.31 215 325.62 215 328 C207.08 328.495 207.08 328.495 199 329 C199 331.31 199 333.62 199 336 C203.95 336 208.9 336 214 336 C214.33 334.02 214.66 332.04 215 330 C216.07121094 329.95101563 217.14242188 329.90203125 218.24609375 329.8515625 C219.64325639 329.77654706 221.0403905 329.7009987 222.4375 329.625 C223.14455078 329.5940625 223.85160156 329.563125 224.58007812 329.53125 C226.39239188 329.42719371 228.19817988 329.22080108 230 329 C231.4472136 326.47825081 231.4472136 326.47825081 231 321 C225.72 321 220.44 321 215 321 Z M81 322 C81 324.31 81 326.62 81 329 C89.91 329 98.82 329 108 329 C108 326.69 108 324.38 108 322 C99.09 322 90.18 322 81 322 Z " fill="#FF4500" transform="translate(99,38)"></path><path d="M274 328 C274 328 274 328 274 328 C271.36 328 268.72 328 266 328 C266 330.97 266 333.94 266 337 C260.06 337 254.12 337 248 337 C248 338.98 248 340.96 248 343 C243.71 343 239.42 343 235 343 C235 339.37 235 335.74 235 332 C232.69 332 230.38 332 228 332 C228 335.63 228 339.26 228 343" fill="#8B0000" transform="translate(99,38)"></path><path d="M285 81 C285 81 285 81 285 81 C285.1 82 285.2 83 285.3 84 C285.5 86 285.7 88 285.9 90" fill="#FFFFFF" transform="translate(99,38)"></path><path d="M400 189 C400 189 400 189 400 189 C400 191 400 193 400 195 C402 195 404 195 406 195" fill="#FFFFFF" transform="translate(99,38)"></path><path d="M313 268 C313 268 313 268 313 268 C313 270 313 272 313 274 C315 274 317 274 319 274" fill="#FFFFFF" transform="translate(99,38)"></path></svg>
